<svg width="111" height="22" viewBox="0 0 111 22" fill="none" xmlns="http://www.w3.org/2000/svg">
<g clip-path="url(#clip0_964_6448)">
<path d="M20.6308 8.41256C20.5731 8.24274 20.467 8.09353 20.3255 7.98335C20.184 7.87316 20.0134 7.80681 19.8346 7.79251L14.6055 7.377L12.3426 2.36798C12.2706 2.20665 12.1534 2.06963 12.0051 1.97344C11.8569 1.87726 11.684 1.82602 11.5073 1.82593C11.3306 1.82583 11.1577 1.87687 11.0094 1.9729C10.861 2.06892 10.7437 2.20582 10.6714 2.36707L8.40862 7.377L3.17947 7.79251C3.00378 7.80642 2.83582 7.87066 2.69568 7.97754C2.55554 8.08442 2.44916 8.2294 2.38926 8.39516C2.32937 8.56091 2.31849 8.74041 2.35794 8.91218C2.39739 9.08395 2.48549 9.24072 2.6117 9.36373L6.47601 13.1308L5.10933 19.0488C5.06783 19.2279 5.08113 19.4154 5.1475 19.5869C5.21388 19.7584 5.33026 19.9059 5.48154 20.0105C5.63283 20.115 5.81204 20.1716 5.99591 20.173C6.17979 20.1744 6.35984 20.1205 6.5127 20.0183L11.507 16.6888L16.5014 20.0183C16.6576 20.1221 16.8419 20.1755 17.0294 20.1713C17.2169 20.1672 17.3986 20.1058 17.5501 19.9953C17.7017 19.8848 17.8158 19.7306 17.877 19.5533C17.9383 19.3761 17.9438 19.1843 17.8928 19.0039L16.2152 13.1336L20.3758 9.38941C20.6482 9.14359 20.7482 8.76019 20.6308 8.41256Z" fill="#F3CD03"/>
<path d="M42.6451 8.41256C42.5875 8.24274 42.4813 8.09353 42.3398 7.98335C42.1984 7.87316 42.0277 7.80681 41.8489 7.79251L36.6198 7.377L34.357 2.36798C34.2849 2.20665 34.1677 2.06963 34.0195 1.97344C33.8713 1.87726 33.6984 1.82602 33.5217 1.82593C33.345 1.82583 33.172 1.87687 33.0237 1.9729C32.8754 2.06892 32.758 2.20582 32.6858 2.36707L30.423 7.377L25.1938 7.79251C25.0181 7.80642 24.8502 7.87066 24.71 7.97754C24.5699 8.08442 24.4635 8.2294 24.4036 8.39516C24.3437 8.56091 24.3328 8.74041 24.3723 8.91218C24.4117 9.08395 24.4998 9.24072 24.626 9.36373L28.4904 13.1308L27.1237 19.0488C27.0822 19.2279 27.0955 19.4154 27.1618 19.5869C27.2282 19.7584 27.3446 19.9059 27.4959 20.0105C27.6472 20.115 27.8264 20.1716 28.0103 20.173C28.1941 20.1744 28.3742 20.1205 28.527 20.0183L33.5214 16.6888L38.5157 20.0183C38.672 20.1221 38.8562 20.1755 39.0437 20.1713C39.2312 20.1672 39.4129 20.1058 39.5645 19.9953C39.716 19.8848 39.8301 19.7306 39.8914 19.5533C39.9526 19.3761 39.9581 19.1843 39.9072 19.0039L38.2295 13.1336L42.3901 9.38941C42.6625 9.14359 42.7625 8.76019 42.6451 8.41256Z" fill="#F3CD03"/>
<path d="M64.6555 8.41256C64.5979 8.24274 64.4918 8.09353 64.3503 7.98335C64.2088 7.87316 64.0381 7.80681 63.8594 7.79251L58.6302 7.377L56.3674 2.36798C56.2954 2.20665 56.1781 2.06963 56.0299 1.97344C55.8817 1.87726 55.7088 1.82602 55.5321 1.82593C55.3554 1.82583 55.1825 1.87687 55.0341 1.9729C54.8858 2.06892 54.7685 2.20582 54.6962 2.36707L52.4334 7.377L47.2042 7.79251C47.0286 7.80642 46.8606 7.87066 46.7205 7.97754C46.5803 8.08442 46.4739 8.2294 46.414 8.39516C46.3541 8.56091 46.3433 8.74041 46.3827 8.91218C46.4222 9.08395 46.5103 9.24072 46.6365 9.36373L50.5008 13.1308L49.1341 19.0488C49.0926 19.2279 49.1059 19.4154 49.1723 19.5869C49.2387 19.7584 49.355 19.9059 49.5063 20.0105C49.6576 20.115 49.8368 20.1716 50.0207 20.173C50.2046 20.1744 50.3846 20.1205 50.5375 20.0183L55.5318 16.6888L60.5262 20.0183C60.6824 20.1221 60.8667 20.1755 61.0541 20.1713C61.2416 20.1672 61.4234 20.1058 61.5749 19.9953C61.7265 19.8848 61.8405 19.7306 61.9018 19.5533C61.9631 19.3761 61.9686 19.1843 61.9176 19.0039L60.24 13.1336L64.4006 9.38941C64.673 9.14359 64.773 8.76019 64.6555 8.41256Z" fill="#F3CD03"/>
<path d="M86.6719 8.41256C86.6142 8.24274 86.5081 8.09353 86.3666 7.98335C86.2251 7.87316 86.0545 7.80681 85.8757 7.79251L80.6465 7.377L78.3837 2.36798C78.3117 2.20665 78.1944 2.06963 78.0462 1.97344C77.898 1.87726 77.7251 1.82602 77.5484 1.82593C77.3717 1.82583 77.1988 1.87687 77.0505 1.9729C76.9021 2.06892 76.7848 2.20582 76.7125 2.36707L74.4497 7.377L69.2206 7.79251C69.0449 7.80642 68.8769 7.87066 68.7368 7.97754C68.5966 8.08442 68.4903 8.2294 68.4304 8.39516C68.3705 8.56091 68.3596 8.74041 68.399 8.91218C68.4385 9.08395 68.5266 9.24072 68.6528 9.36373L72.5171 13.1308L71.1504 19.0488C71.1089 19.2279 71.1222 19.4154 71.1886 19.5869C71.255 19.7584 71.3713 19.9059 71.5226 20.0105C71.6739 20.115 71.8531 20.1716 72.037 20.173C72.2209 20.1744 72.4009 20.1205 72.5538 20.0183L77.5481 16.6888L82.5425 20.0183C82.6987 20.1221 82.883 20.1755 83.0705 20.1713C83.258 20.1672 83.4397 20.1058 83.5912 19.9953C83.7428 19.8848 83.8568 19.7306 83.9181 19.5533C83.9794 19.3761 83.9849 19.1843 83.9339 19.0039L82.2563 13.1336L86.4169 9.38941C86.6893 9.14359 86.7893 8.76019 86.6719 8.41256Z" fill="#F3CD03"/>
<path d="M94.5324 13.1308L93.1657 19.0488C93.1234 19.228 93.1361 19.4158 93.2021 19.5877C93.2682 19.7596 93.3846 19.9075 93.536 20.0122C93.6875 20.1169 93.867 20.1735 94.0511 20.1746C94.2353 20.1757 94.4154 20.1212 94.5681 20.0183L99.5625 16.6888L104.557 20.0183C104.713 20.1221 104.897 20.1755 105.085 20.1714C105.272 20.1673 105.454 20.1058 105.606 19.9953C105.757 19.8849 105.871 19.7306 105.932 19.5534C105.994 19.3761 105.999 19.1844 105.948 19.0039L104.271 13.1336L108.431 9.38944C108.564 9.26946 108.66 9.11304 108.705 8.93955C108.75 8.76605 108.744 8.58308 108.686 8.41327C108.629 8.24345 108.522 8.09424 108.381 7.98408C108.239 7.87392 108.069 7.80764 107.89 7.79345L102.661 7.37703L100.398 2.36801C100.326 2.20672 100.209 2.06976 100.06 1.97366C99.9121 1.87755 99.7392 1.82642 99.5625 1.82642C99.3858 1.82642 99.2129 1.87755 99.0646 1.97366C98.9163 2.06976 98.799 2.20672 98.7269 2.36801L96.4641 7.37703L91.2349 7.79254C91.0592 7.80645 90.8913 7.87069 90.7511 7.97757C90.611 8.08445 90.5046 8.22943 90.4447 8.39518C90.3848 8.56094 90.3739 8.74044 90.4134 8.91221C90.4528 9.08398 90.5409 9.24074 90.6671 9.36376L94.5324 13.1308ZM97.1492 9.16288C97.313 9.14998 97.4702 9.09328 97.6045 8.99871C97.7387 8.90414 97.8451 8.77519 97.9124 8.62538L99.5625 4.97387L101.213 8.62538C101.28 8.77519 101.386 8.90414 101.52 8.99871C101.655 9.09328 101.812 9.14998 101.976 9.16288L105.619 9.45181L102.619 12.1521C102.358 12.387 102.255 12.7484 102.35 13.0859L103.499 17.108L100.072 14.8231C99.922 14.7222 99.745 14.6683 99.5638 14.6683C99.3827 14.6683 99.2057 14.7222 99.0552 14.8231L95.4744 17.2107L96.4375 13.0409C96.4728 12.8876 96.468 12.7277 96.4237 12.5767C96.3794 12.4257 96.2969 12.2887 96.1843 12.1787L93.3977 9.4619L97.1492 9.16288Z" fill="#F3CD03"/>
</g>
<defs>
<clipPath id="clip0_964_6448">
<rect width="110.068" height="22" fill="white" transform="translate(0.5)"/>
</clipPath>
</defs>
</svg>